<mxfile host="app.diagrams.net" agent="Mozilla/5.0 (Macintosh; Intel Mac OS X 10_15_7) AppleWebKit/537.36 (KHTML, like Gecko) Chrome/137.0.0.0 Safari/537.36" version="27.1.6">
  <diagram name="Seite-1" id="Xnhz5s5pKdG3m8U-HSbk">
    <mxGraphModel dx="268" dy="185" grid="1" gridSize="10" guides="1" tooltips="1" connect="1" arrows="1" fold="1" page="1" pageScale="1" pageWidth="827" pageHeight="1169" math="0" shadow="0">
      <root>
        <mxCell id="0" />
        <mxCell id="1" parent="0" />
        <mxCell id="V_mXfdiF8SK9Dc6X47jU-3" value="" style="rounded=0;whiteSpace=wrap;html=1;rotation=90;fillColor=none;" parent="1" vertex="1">
          <mxGeometry x="600" y="265.25" width="160" height="120" as="geometry" />
        </mxCell>
        <mxCell id="V_mXfdiF8SK9Dc6X47jU-7" value="" style="endArrow=none;html=1;rounded=0;exitX=1.003;exitY=0.665;exitDx=0;exitDy=0;exitPerimeter=0;" parent="1" source="V_mXfdiF8SK9Dc6X47jU-3" edge="1">
          <mxGeometry width="50" height="50" relative="1" as="geometry">
            <mxPoint x="890.25" y="445" as="sourcePoint" />
            <mxPoint x="660.25" y="245" as="targetPoint" />
          </mxGeometry>
        </mxCell>
        <mxCell id="V_mXfdiF8SK9Dc6X47jU-8" value="" style="endArrow=none;html=1;rounded=0;exitX=1.003;exitY=0.665;exitDx=0;exitDy=0;exitPerimeter=0;" parent="1" edge="1">
          <mxGeometry width="50" height="50" relative="1" as="geometry">
            <mxPoint x="700.25" y="405" as="sourcePoint" />
            <mxPoint x="700.25" y="245" as="targetPoint" />
          </mxGeometry>
        </mxCell>
        <mxCell id="V_mXfdiF8SK9Dc6X47jU-9" value="Batterie" style="text;html=1;align=center;verticalAlign=middle;whiteSpace=wrap;rounded=0;" parent="1" vertex="1">
          <mxGeometry x="688" y="230" width="62" height="15" as="geometry" />
        </mxCell>
        <mxCell id="V_mXfdiF8SK9Dc6X47jU-10" value="" style="endArrow=none;html=1;rounded=0;exitX=-0.004;exitY=0.828;exitDx=0;exitDy=0;exitPerimeter=0;" parent="1" source="V_mXfdiF8SK9Dc6X47jU-3" edge="1">
          <mxGeometry width="50" height="50" relative="1" as="geometry">
            <mxPoint x="810.25" y="338" as="sourcePoint" />
            <mxPoint x="641" y="205" as="targetPoint" />
          </mxGeometry>
        </mxCell>
        <mxCell id="V_mXfdiF8SK9Dc6X47jU-12" value="" style="endArrow=none;html=1;rounded=0;entryX=0.825;entryY=0.004;entryDx=0;entryDy=0;entryPerimeter=0;" parent="1" edge="1" target="V_mXfdiF8SK9Dc6X47jU-15">
          <mxGeometry width="50" height="50" relative="1" as="geometry">
            <mxPoint x="640" y="430" as="sourcePoint" />
            <mxPoint x="641" y="405" as="targetPoint" />
          </mxGeometry>
        </mxCell>
        <mxCell id="V_mXfdiF8SK9Dc6X47jU-13" value="+" style="ellipse;whiteSpace=wrap;html=1;aspect=fixed;fillColor=none;" parent="1" vertex="1">
          <mxGeometry x="654" y="214.5" width="20" height="20" as="geometry" />
        </mxCell>
        <mxCell id="V_mXfdiF8SK9Dc6X47jU-14" value="-" style="ellipse;whiteSpace=wrap;html=1;aspect=fixed;fillColor=none;" parent="1" vertex="1">
          <mxGeometry x="654" y="415" width="20" height="20" as="geometry" />
        </mxCell>
        <mxCell id="V_mXfdiF8SK9Dc6X47jU-15" value="&lt;font style=&quot;font-size: 6px;&quot;&gt;GND&lt;/font&gt;" style="text;html=1;align=center;verticalAlign=middle;whiteSpace=wrap;rounded=0;" parent="1" vertex="1">
          <mxGeometry x="615" y="405" width="30" height="8" as="geometry" />
        </mxCell>
        <mxCell id="V_mXfdiF8SK9Dc6X47jU-16" value="ON / OFF" style="text;html=1;align=center;verticalAlign=middle;whiteSpace=wrap;rounded=0;" parent="1" vertex="1">
          <mxGeometry x="570" y="208" width="55" height="23" as="geometry" />
        </mxCell>
        <mxCell id="V_mXfdiF8SK9Dc6X47jU-17" value="" style="rounded=0;whiteSpace=wrap;html=1;fillColor=none;" parent="1" vertex="1">
          <mxGeometry x="447" y="180.5" width="90" height="47" as="geometry" />
        </mxCell>
        <mxCell id="V_mXfdiF8SK9Dc6X47jU-18" value="&lt;span data-teams=&quot;true&quot;&gt;MCP1700&lt;/span&gt;" style="text;html=1;align=center;verticalAlign=middle;whiteSpace=wrap;rounded=0;" parent="1" vertex="1">
          <mxGeometry x="170" y="160.5" width="60" height="23" as="geometry" />
        </mxCell>
        <mxCell id="V_mXfdiF8SK9Dc6X47jU-21" value="&lt;span data-teams=&quot;true&quot;&gt;PowerBoost 500&lt;/span&gt;" style="text;html=1;align=center;verticalAlign=middle;whiteSpace=wrap;rounded=0;" parent="1" vertex="1">
          <mxGeometry x="440" y="160.5" width="100" height="23" as="geometry" />
        </mxCell>
        <mxCell id="V_mXfdiF8SK9Dc6X47jU-22" value="BAT" style="text;html=1;align=center;verticalAlign=middle;whiteSpace=wrap;rounded=0;fontSize=6;" parent="1" vertex="1">
          <mxGeometry x="537" y="193" width="20" height="10" as="geometry" />
        </mxCell>
        <mxCell id="V_mXfdiF8SK9Dc6X47jU-24" value="" style="endArrow=none;html=1;rounded=0;entryX=0.008;entryY=0.997;entryDx=0;entryDy=0;exitX=1;exitY=0.5;exitDx=0;exitDy=0;entryPerimeter=0;" parent="1" target="V_mXfdiF8SK9Dc6X47jU-120" edge="1">
          <mxGeometry width="50" height="50" relative="1" as="geometry">
            <mxPoint x="537" y="205" as="sourcePoint" />
            <mxPoint x="550" y="204.80000000000007" as="targetPoint" />
          </mxGeometry>
        </mxCell>
        <mxCell id="V_mXfdiF8SK9Dc6X47jU-25" value="5V" style="text;html=1;align=center;verticalAlign=middle;whiteSpace=wrap;rounded=0;fontSize=6;" parent="1" vertex="1">
          <mxGeometry x="427" y="194" width="20" height="10" as="geometry" />
        </mxCell>
        <mxCell id="V_mXfdiF8SK9Dc6X47jU-27" value="" style="endArrow=none;html=1;rounded=0;exitX=0;exitY=0.5;exitDx=0;exitDy=0;entryX=0.997;entryY=0.541;entryDx=0;entryDy=0;entryPerimeter=0;" parent="1" target="V_mXfdiF8SK9Dc6X47jU-29" edge="1" source="V_mXfdiF8SK9Dc6X47jU-17">
          <mxGeometry width="50" height="50" relative="1" as="geometry">
            <mxPoint x="366" y="205" as="sourcePoint" />
            <mxPoint x="303" y="205" as="targetPoint" />
          </mxGeometry>
        </mxCell>
        <mxCell id="V_mXfdiF8SK9Dc6X47jU-29" value="" style="rounded=0;whiteSpace=wrap;html=1;fillColor=none;" parent="1" vertex="1">
          <mxGeometry x="172" y="179.5" width="60" height="47" as="geometry" />
        </mxCell>
        <mxCell id="V_mXfdiF8SK9Dc6X47jU-32" value="VIN" style="text;html=1;align=center;verticalAlign=middle;whiteSpace=wrap;rounded=0;fontSize=6;" parent="1" vertex="1">
          <mxGeometry x="230" y="195" width="20" height="10" as="geometry" />
        </mxCell>
        <mxCell id="V_mXfdiF8SK9Dc6X47jU-33" value="" style="endArrow=none;html=1;rounded=0;exitX=0.5;exitY=1;exitDx=0;exitDy=0;entryX=0.164;entryY=-0.005;entryDx=0;entryDy=0;entryPerimeter=0;" parent="1" source="V_mXfdiF8SK9Dc6X47jU-29" target="V_mXfdiF8SK9Dc6X47jU-35" edge="1">
          <mxGeometry width="50" height="50" relative="1" as="geometry">
            <mxPoint x="473" y="325" as="sourcePoint" />
            <mxPoint x="288" y="265" as="targetPoint" />
          </mxGeometry>
        </mxCell>
        <mxCell id="V_mXfdiF8SK9Dc6X47jU-34" value="VOUT" style="text;html=1;align=center;verticalAlign=middle;whiteSpace=wrap;rounded=0;fontSize=6;" parent="1" vertex="1">
          <mxGeometry x="203" y="226.5" width="20" height="10" as="geometry" />
        </mxCell>
        <mxCell id="V_mXfdiF8SK9Dc6X47jU-35" value="" style="rounded=0;whiteSpace=wrap;html=1;fillColor=none;" parent="1" vertex="1">
          <mxGeometry x="173" y="409" width="180" height="81" as="geometry" />
        </mxCell>
        <mxCell id="V_mXfdiF8SK9Dc6X47jU-36" value="RAK 4260 BastWAN Board" style="text;html=1;align=center;verticalAlign=middle;whiteSpace=wrap;rounded=0;" parent="1" vertex="1">
          <mxGeometry x="173" y="488" width="153" height="23" as="geometry" />
        </mxCell>
        <mxCell id="V_mXfdiF8SK9Dc6X47jU-37" value="BAT" style="text;html=1;align=center;verticalAlign=middle;whiteSpace=wrap;rounded=0;fontSize=6;" parent="1" vertex="1">
          <mxGeometry x="201" y="399" width="20" height="10" as="geometry" />
        </mxCell>
        <mxCell id="V_mXfdiF8SK9Dc6X47jU-39" value="" style="rounded=0;whiteSpace=wrap;html=1;fillColor=none;" parent="1" vertex="1">
          <mxGeometry x="293" y="259" width="127" height="60" as="geometry" />
        </mxCell>
        <mxCell id="V_mXfdiF8SK9Dc6X47jU-40" value="Sharp GP2Y0A21YK0F" style="text;html=1;align=center;verticalAlign=middle;whiteSpace=wrap;rounded=0;" parent="1" vertex="1">
          <mxGeometry x="280" y="239" width="153" height="23" as="geometry" />
        </mxCell>
        <mxCell id="V_mXfdiF8SK9Dc6X47jU-41" value="" style="endArrow=none;html=1;rounded=0;" parent="1" edge="1">
          <mxGeometry width="50" height="50" relative="1" as="geometry">
            <mxPoint x="273" y="205" as="sourcePoint" />
            <mxPoint x="273" y="290" as="targetPoint" />
          </mxGeometry>
        </mxCell>
        <mxCell id="V_mXfdiF8SK9Dc6X47jU-43" value="A0" style="text;html=1;align=center;verticalAlign=middle;whiteSpace=wrap;rounded=0;fontSize=6;" parent="1" vertex="1">
          <mxGeometry x="305" y="399" width="20" height="10" as="geometry" />
        </mxCell>
        <mxCell id="V_mXfdiF8SK9Dc6X47jU-45" value="" style="endArrow=none;html=1;rounded=0;entryX=0;entryY=0.5;entryDx=0;entryDy=0;" parent="1" target="V_mXfdiF8SK9Dc6X47jU-39" edge="1">
          <mxGeometry width="50" height="50" relative="1" as="geometry">
            <mxPoint x="273" y="289" as="sourcePoint" />
            <mxPoint x="353" y="279" as="targetPoint" />
          </mxGeometry>
        </mxCell>
        <mxCell id="V_mXfdiF8SK9Dc6X47jU-46" value="" style="endArrow=none;html=1;rounded=0;entryX=0.828;entryY=-0.008;entryDx=0;entryDy=0;entryPerimeter=0;" parent="1" target="V_mXfdiF8SK9Dc6X47jU-35" edge="1">
          <mxGeometry width="50" height="50" relative="1" as="geometry">
            <mxPoint x="323" y="319" as="sourcePoint" />
            <mxPoint x="413" y="385" as="targetPoint" />
          </mxGeometry>
        </mxCell>
        <mxCell id="V_mXfdiF8SK9Dc6X47jU-47" value="" style="endArrow=none;html=1;rounded=0;exitX=0.808;exitY=0.999;exitDx=0;exitDy=0;exitPerimeter=0;" parent="1" edge="1">
          <mxGeometry width="50" height="50" relative="1" as="geometry">
            <mxPoint x="523.97" y="227.50299999999993" as="sourcePoint" />
            <mxPoint x="524.25" y="480.04999999999995" as="targetPoint" />
          </mxGeometry>
        </mxCell>
        <mxCell id="V_mXfdiF8SK9Dc6X47jU-48" value="" style="endArrow=none;html=1;rounded=0;entryX=0.999;entryY=0.877;entryDx=0;entryDy=0;entryPerimeter=0;" parent="1" target="V_mXfdiF8SK9Dc6X47jU-35" edge="1">
          <mxGeometry width="50" height="50" relative="1" as="geometry">
            <mxPoint x="524.25" y="480.04999999999995" as="sourcePoint" />
            <mxPoint x="357.06999999999994" y="481.1399999999999" as="targetPoint" />
          </mxGeometry>
        </mxCell>
        <mxCell id="V_mXfdiF8SK9Dc6X47jU-49" value="A4" style="text;html=1;align=center;verticalAlign=middle;whiteSpace=wrap;rounded=0;fontSize=6;" parent="1" vertex="1">
          <mxGeometry x="350.75" y="470.04999999999995" width="20" height="10" as="geometry" />
        </mxCell>
        <mxCell id="V_mXfdiF8SK9Dc6X47jU-50" value="" style="endArrow=none;html=1;rounded=0;exitX=0;exitY=0.5;exitDx=0;exitDy=0;entryX=0.5;entryY=0;entryDx=0;entryDy=0;entryPerimeter=0;" parent="1" edge="1">
          <mxGeometry width="50" height="50" relative="1" as="geometry">
            <mxPoint x="172" y="205" as="sourcePoint" />
            <mxPoint x="148.17000000000007" y="205" as="targetPoint" />
          </mxGeometry>
        </mxCell>
        <mxCell id="V_mXfdiF8SK9Dc6X47jU-51" value="GND" style="text;html=1;align=center;verticalAlign=middle;whiteSpace=wrap;rounded=0;fontSize=6;" parent="1" vertex="1">
          <mxGeometry x="153" y="195" width="20" height="10" as="geometry" />
        </mxCell>
        <mxCell id="V_mXfdiF8SK9Dc6X47jU-52" value="" style="endArrow=none;html=1;rounded=0;" parent="1" edge="1">
          <mxGeometry width="50" height="50" relative="1" as="geometry">
            <mxPoint x="173" y="440" as="sourcePoint" />
            <mxPoint x="163" y="440" as="targetPoint" />
          </mxGeometry>
        </mxCell>
        <mxCell id="V_mXfdiF8SK9Dc6X47jU-53" value="GND" style="text;html=1;align=center;verticalAlign=middle;whiteSpace=wrap;rounded=0;fontSize=6;" parent="1" vertex="1">
          <mxGeometry x="154" y="430" width="20" height="10" as="geometry" />
        </mxCell>
        <mxCell id="V_mXfdiF8SK9Dc6X47jU-58" value="" style="endArrow=none;html=1;rounded=0;entryX=1;entryY=0;entryDx=0;entryDy=0;" parent="1" target="V_mXfdiF8SK9Dc6X47jU-59" edge="1">
          <mxGeometry width="50" height="50" relative="1" as="geometry">
            <mxPoint x="473" y="370" as="sourcePoint" />
            <mxPoint x="473.37" y="231.79499999999996" as="targetPoint" />
          </mxGeometry>
        </mxCell>
        <mxCell id="V_mXfdiF8SK9Dc6X47jU-59" value="GND" style="text;html=1;align=center;verticalAlign=middle;whiteSpace=wrap;rounded=0;fontSize=6;" parent="1" vertex="1">
          <mxGeometry x="454" y="227.5" width="20" height="10" as="geometry" />
        </mxCell>
        <mxCell id="V_mXfdiF8SK9Dc6X47jU-60" value="LBO" style="text;html=1;align=center;verticalAlign=middle;whiteSpace=wrap;rounded=0;fontSize=6;" parent="1" vertex="1">
          <mxGeometry x="505.25" y="228.04999999999995" width="20" height="10" as="geometry" />
        </mxCell>
        <mxCell id="V_mXfdiF8SK9Dc6X47jU-61" value="&lt;font style=&quot;font-size: 8px;&quot;&gt;Spannungs-&lt;/font&gt;&lt;span style=&quot;background-color: transparent; color: light-dark(rgb(0, 0, 0), rgb(255, 255, 255)); font-size: 8px;&quot;&gt;regler&lt;/span&gt;" style="text;html=1;align=center;verticalAlign=middle;whiteSpace=wrap;rounded=0;fontSize=6;" parent="1" vertex="1">
          <mxGeometry x="190" y="185" width="20" height="10" as="geometry" />
        </mxCell>
        <mxCell id="V_mXfdiF8SK9Dc6X47jU-63" value="&lt;font style=&quot;font-size: 8px;&quot;&gt;DC-DC-Boost-Konverter&lt;/font&gt;" style="text;html=1;align=center;verticalAlign=middle;whiteSpace=wrap;rounded=0;fontSize=6;" parent="1" vertex="1">
          <mxGeometry x="452" y="186.5" width="80" height="10" as="geometry" />
        </mxCell>
        <mxCell id="V_mXfdiF8SK9Dc6X47jU-64" value="&lt;font style=&quot;font-size: 8px;&quot;&gt;Sensor&lt;/font&gt;" style="text;html=1;align=center;verticalAlign=middle;whiteSpace=wrap;rounded=0;fontSize=6;" parent="1" vertex="1">
          <mxGeometry x="314.5" y="260" width="80" height="10" as="geometry" />
        </mxCell>
        <mxCell id="V_mXfdiF8SK9Dc6X47jU-65" value="&lt;font style=&quot;font-size: 8px;&quot;&gt;Steuergerät&lt;/font&gt;" style="text;html=1;align=center;verticalAlign=middle;whiteSpace=wrap;rounded=0;fontSize=6;" parent="1" vertex="1">
          <mxGeometry x="215.5" y="410" width="80" height="10" as="geometry" />
        </mxCell>
        <mxCell id="V_mXfdiF8SK9Dc6X47jU-120" value="" style="pointerEvents=1;verticalLabelPosition=bottom;shadow=0;dashed=0;align=center;html=1;verticalAlign=top;shape=mxgraph.electrical.electro-mechanical.manualSwitch2;elSwitchState=off;" parent="1" vertex="1">
          <mxGeometry x="550" y="187" width="75" height="18" as="geometry" />
        </mxCell>
        <mxCell id="znn5ze5iM0K1tYEYaF_U-1" value="" style="endArrow=none;html=1;rounded=0;" edge="1" parent="1">
          <mxGeometry width="50" height="50" relative="1" as="geometry">
            <mxPoint x="641" y="205" as="sourcePoint" />
            <mxPoint x="621" y="205" as="targetPoint" />
          </mxGeometry>
        </mxCell>
        <mxCell id="znn5ze5iM0K1tYEYaF_U-2" value="" style="endArrow=none;html=1;rounded=0;entryX=1;entryY=0;entryDx=0;entryDy=0;" edge="1" parent="1" target="znn5ze5iM0K1tYEYaF_U-3">
          <mxGeometry width="50" height="50" relative="1" as="geometry">
            <mxPoint x="360" y="370" as="sourcePoint" />
            <mxPoint x="359.66600000000005" y="323.94000000000005" as="targetPoint" />
          </mxGeometry>
        </mxCell>
        <mxCell id="znn5ze5iM0K1tYEYaF_U-3" value="GND" style="text;html=1;align=center;verticalAlign=middle;whiteSpace=wrap;rounded=0;fontSize=6;" vertex="1" parent="1">
          <mxGeometry x="340.5" y="319" width="20" height="10" as="geometry" />
        </mxCell>
        <mxCell id="znn5ze5iM0K1tYEYaF_U-4" value="" style="endArrow=none;html=1;rounded=0;exitX=0.999;exitY=0.139;exitDx=0;exitDy=0;entryX=0;entryY=0.5;entryDx=0;entryDy=0;entryPerimeter=0;exitPerimeter=0;" edge="1" parent="1" target="znn5ze5iM0K1tYEYaF_U-39">
          <mxGeometry width="50" height="50" relative="1" as="geometry">
            <mxPoint x="352.82000000000005" y="431.259" as="sourcePoint" />
            <mxPoint x="430" y="433" as="targetPoint" />
          </mxGeometry>
        </mxCell>
        <mxCell id="znn5ze5iM0K1tYEYaF_U-6" value="" style="endArrow=none;html=1;rounded=0;exitX=0.7;exitY=0;exitDx=0;exitDy=0;exitPerimeter=0;" edge="1" parent="1" source="znn5ze5iM0K1tYEYaF_U-52">
          <mxGeometry width="50" height="50" relative="1" as="geometry">
            <mxPoint x="413.4729000000001" y="369.505" as="sourcePoint" />
            <mxPoint x="360" y="370" as="targetPoint" />
          </mxGeometry>
        </mxCell>
        <mxCell id="znn5ze5iM0K1tYEYaF_U-7" value="" style="endArrow=none;html=1;rounded=0;exitX=0.7;exitY=1;exitDx=0;exitDy=0;exitPerimeter=0;" edge="1" parent="1" source="znn5ze5iM0K1tYEYaF_U-52">
          <mxGeometry width="50" height="50" relative="1" as="geometry">
            <mxPoint x="437.75" y="376.5" as="sourcePoint" />
            <mxPoint x="473" y="370" as="targetPoint" />
          </mxGeometry>
        </mxCell>
        <mxCell id="znn5ze5iM0K1tYEYaF_U-8" value="Source" style="text;html=1;align=center;verticalAlign=middle;whiteSpace=wrap;rounded=0;fontSize=6;" vertex="1" parent="1">
          <mxGeometry x="436.5" y="374.25" width="20" height="10" as="geometry" />
        </mxCell>
        <mxCell id="znn5ze5iM0K1tYEYaF_U-9" value="Drain" style="text;html=1;align=center;verticalAlign=middle;whiteSpace=wrap;rounded=0;fontSize=6;" vertex="1" parent="1">
          <mxGeometry x="360.75" y="373" width="20" height="10" as="geometry" />
        </mxCell>
        <mxCell id="znn5ze5iM0K1tYEYaF_U-11" value="" style="pointerEvents=1;verticalLabelPosition=bottom;shadow=0;dashed=0;align=center;html=1;verticalAlign=top;shape=mxgraph.electrical.resistors.resistor_1;rotation=90;fillColor=none;" vertex="1" parent="1">
          <mxGeometry x="405.5" y="441.73" width="30" height="9" as="geometry" />
        </mxCell>
        <mxCell id="znn5ze5iM0K1tYEYaF_U-16" value="" style="group" vertex="1" connectable="0" parent="1">
          <mxGeometry x="411.5" y="441.73" width="20" height="26" as="geometry" />
        </mxCell>
        <mxCell id="znn5ze5iM0K1tYEYaF_U-13" value="" style="endArrow=none;html=1;rounded=0;" edge="1" parent="znn5ze5iM0K1tYEYaF_U-16">
          <mxGeometry width="50" height="50" relative="1" as="geometry">
            <mxPoint y="20" as="sourcePoint" />
            <mxPoint x="20" y="20" as="targetPoint" />
          </mxGeometry>
        </mxCell>
        <mxCell id="znn5ze5iM0K1tYEYaF_U-14" value="" style="endArrow=none;html=1;rounded=0;" edge="1" parent="znn5ze5iM0K1tYEYaF_U-16">
          <mxGeometry width="50" height="50" relative="1" as="geometry">
            <mxPoint x="2" y="23" as="sourcePoint" />
            <mxPoint x="18" y="23" as="targetPoint" />
          </mxGeometry>
        </mxCell>
        <mxCell id="znn5ze5iM0K1tYEYaF_U-15" value="" style="endArrow=none;html=1;rounded=0;" edge="1" parent="znn5ze5iM0K1tYEYaF_U-16">
          <mxGeometry width="50" height="50" relative="1" as="geometry">
            <mxPoint x="5" y="26" as="sourcePoint" />
            <mxPoint x="15" y="26" as="targetPoint" />
          </mxGeometry>
        </mxCell>
        <mxCell id="znn5ze5iM0K1tYEYaF_U-17" value="" style="group" vertex="1" connectable="0" parent="1">
          <mxGeometry x="630" y="419.99999999999994" width="20" height="26" as="geometry" />
        </mxCell>
        <mxCell id="znn5ze5iM0K1tYEYaF_U-18" value="" style="endArrow=none;html=1;rounded=0;" edge="1" parent="znn5ze5iM0K1tYEYaF_U-17">
          <mxGeometry width="50" height="50" relative="1" as="geometry">
            <mxPoint x="10" y="20" as="sourcePoint" />
            <mxPoint x="10" as="targetPoint" />
          </mxGeometry>
        </mxCell>
        <mxCell id="znn5ze5iM0K1tYEYaF_U-19" value="" style="endArrow=none;html=1;rounded=0;" edge="1" parent="znn5ze5iM0K1tYEYaF_U-17">
          <mxGeometry width="50" height="50" relative="1" as="geometry">
            <mxPoint y="20" as="sourcePoint" />
            <mxPoint x="20" y="20" as="targetPoint" />
          </mxGeometry>
        </mxCell>
        <mxCell id="znn5ze5iM0K1tYEYaF_U-20" value="" style="endArrow=none;html=1;rounded=0;" edge="1" parent="znn5ze5iM0K1tYEYaF_U-17">
          <mxGeometry width="50" height="50" relative="1" as="geometry">
            <mxPoint x="2" y="23" as="sourcePoint" />
            <mxPoint x="18" y="23" as="targetPoint" />
          </mxGeometry>
        </mxCell>
        <mxCell id="znn5ze5iM0K1tYEYaF_U-21" value="" style="endArrow=none;html=1;rounded=0;" edge="1" parent="znn5ze5iM0K1tYEYaF_U-17">
          <mxGeometry width="50" height="50" relative="1" as="geometry">
            <mxPoint x="5" y="26" as="sourcePoint" />
            <mxPoint x="15" y="26" as="targetPoint" />
          </mxGeometry>
        </mxCell>
        <mxCell id="znn5ze5iM0K1tYEYaF_U-24" value="" style="group;rotation=90;" vertex="1" connectable="0" parent="1">
          <mxGeometry x="140" y="426.99999999999994" width="20" height="26" as="geometry" />
        </mxCell>
        <mxCell id="znn5ze5iM0K1tYEYaF_U-25" value="" style="endArrow=none;html=1;rounded=0;" edge="1" parent="znn5ze5iM0K1tYEYaF_U-24">
          <mxGeometry width="50" height="50" relative="1" as="geometry">
            <mxPoint x="3" y="13" as="sourcePoint" />
            <mxPoint x="23" y="13" as="targetPoint" />
          </mxGeometry>
        </mxCell>
        <mxCell id="znn5ze5iM0K1tYEYaF_U-26" value="" style="endArrow=none;html=1;rounded=0;" edge="1" parent="znn5ze5iM0K1tYEYaF_U-24">
          <mxGeometry width="50" height="50" relative="1" as="geometry">
            <mxPoint x="3" y="3" as="sourcePoint" />
            <mxPoint x="3" y="23" as="targetPoint" />
          </mxGeometry>
        </mxCell>
        <mxCell id="znn5ze5iM0K1tYEYaF_U-27" value="" style="endArrow=none;html=1;rounded=0;" edge="1" parent="znn5ze5iM0K1tYEYaF_U-24">
          <mxGeometry width="50" height="50" relative="1" as="geometry">
            <mxPoint y="5" as="sourcePoint" />
            <mxPoint y="21" as="targetPoint" />
          </mxGeometry>
        </mxCell>
        <mxCell id="znn5ze5iM0K1tYEYaF_U-28" value="" style="endArrow=none;html=1;rounded=0;" edge="1" parent="znn5ze5iM0K1tYEYaF_U-24">
          <mxGeometry width="50" height="50" relative="1" as="geometry">
            <mxPoint x="-3" y="8" as="sourcePoint" />
            <mxPoint x="-3" y="18" as="targetPoint" />
          </mxGeometry>
        </mxCell>
        <mxCell id="znn5ze5iM0K1tYEYaF_U-30" value="" style="group;rotation=90;" vertex="1" connectable="0" parent="1">
          <mxGeometry x="136" y="191.99999999999994" width="20" height="26" as="geometry" />
        </mxCell>
        <mxCell id="znn5ze5iM0K1tYEYaF_U-31" value="" style="endArrow=none;html=1;rounded=0;" edge="1" parent="znn5ze5iM0K1tYEYaF_U-30">
          <mxGeometry width="50" height="50" relative="1" as="geometry">
            <mxPoint x="3" y="13" as="sourcePoint" />
            <mxPoint x="23" y="13" as="targetPoint" />
          </mxGeometry>
        </mxCell>
        <mxCell id="znn5ze5iM0K1tYEYaF_U-32" value="" style="endArrow=none;html=1;rounded=0;" edge="1" parent="znn5ze5iM0K1tYEYaF_U-30">
          <mxGeometry width="50" height="50" relative="1" as="geometry">
            <mxPoint x="3" y="3" as="sourcePoint" />
            <mxPoint x="3" y="23" as="targetPoint" />
          </mxGeometry>
        </mxCell>
        <mxCell id="znn5ze5iM0K1tYEYaF_U-33" value="" style="endArrow=none;html=1;rounded=0;" edge="1" parent="znn5ze5iM0K1tYEYaF_U-30">
          <mxGeometry width="50" height="50" relative="1" as="geometry">
            <mxPoint y="5" as="sourcePoint" />
            <mxPoint y="21" as="targetPoint" />
          </mxGeometry>
        </mxCell>
        <mxCell id="znn5ze5iM0K1tYEYaF_U-34" value="" style="endArrow=none;html=1;rounded=0;" edge="1" parent="znn5ze5iM0K1tYEYaF_U-30">
          <mxGeometry width="50" height="50" relative="1" as="geometry">
            <mxPoint x="-3" y="8" as="sourcePoint" />
            <mxPoint x="-3" y="18" as="targetPoint" />
          </mxGeometry>
        </mxCell>
        <mxCell id="znn5ze5iM0K1tYEYaF_U-35" value="D5" style="text;html=1;align=center;verticalAlign=middle;whiteSpace=wrap;rounded=0;fontSize=6;" vertex="1" parent="1">
          <mxGeometry x="350.5" y="421" width="20" height="10" as="geometry" />
        </mxCell>
        <mxCell id="znn5ze5iM0K1tYEYaF_U-36" value="IRLZ44NPBF" style="text;html=1;align=center;verticalAlign=middle;whiteSpace=wrap;rounded=0;" vertex="1" parent="1">
          <mxGeometry x="371" y="342" width="79.5" height="24.5" as="geometry" />
        </mxCell>
        <mxCell id="znn5ze5iM0K1tYEYaF_U-39" value="" style="pointerEvents=1;verticalLabelPosition=bottom;shadow=0;dashed=0;align=center;html=1;verticalAlign=top;shape=mxgraph.electrical.resistors.resistor_1;rotation=0;fillColor=none;" vertex="1" parent="1">
          <mxGeometry x="374.5" y="428.87" width="23.5" height="5" as="geometry" />
        </mxCell>
        <mxCell id="znn5ze5iM0K1tYEYaF_U-40" value="" style="endArrow=none;html=1;rounded=0;exitX=1;exitY=0.5;exitDx=0;exitDy=0;exitPerimeter=0;entryX=0;entryY=0.5;entryDx=0;entryDy=0;entryPerimeter=0;" edge="1" parent="1" source="znn5ze5iM0K1tYEYaF_U-39" target="znn5ze5iM0K1tYEYaF_U-11">
          <mxGeometry width="50" height="50" relative="1" as="geometry">
            <mxPoint x="390" y="471" as="sourcePoint" />
            <mxPoint x="440" y="421" as="targetPoint" />
          </mxGeometry>
        </mxCell>
        <mxCell id="znn5ze5iM0K1tYEYaF_U-42" value="" style="endArrow=none;html=1;rounded=0;exitX=0;exitY=0.5;exitDx=0;exitDy=0;exitPerimeter=0;entryX=0;entryY=0.72;entryDx=0;entryDy=0;entryPerimeter=0;" edge="1" parent="1" source="znn5ze5iM0K1tYEYaF_U-11" target="znn5ze5iM0K1tYEYaF_U-52">
          <mxGeometry width="50" height="50" relative="1" as="geometry">
            <mxPoint x="390" y="410" as="sourcePoint" />
            <mxPoint x="421.5" y="406.505" as="targetPoint" />
          </mxGeometry>
        </mxCell>
        <mxCell id="znn5ze5iM0K1tYEYaF_U-47" value="&lt;font style=&quot;font-size: 8px; color: rgb(0, 0, 0);&quot;&gt;&lt;font style=&quot;&quot;&gt;10K&amp;nbsp;&lt;/font&gt;&lt;span style=&quot;text-align: start;&quot;&gt;Ω&lt;/span&gt;&lt;/font&gt;" style="text;html=1;align=center;verticalAlign=middle;whiteSpace=wrap;rounded=0;fontSize=6;" vertex="1" parent="1">
          <mxGeometry x="424" y="441.73" width="30" height="10" as="geometry" />
        </mxCell>
        <mxCell id="znn5ze5iM0K1tYEYaF_U-48" value="&lt;font style=&quot;font-size: 8px; color: rgb(0, 0, 0);&quot;&gt;&lt;font style=&quot;&quot;&gt;220&amp;nbsp;&lt;/font&gt;&lt;span style=&quot;text-align: start;&quot;&gt;Ω&lt;/span&gt;&lt;/font&gt;" style="text;html=1;align=center;verticalAlign=middle;whiteSpace=wrap;rounded=0;fontSize=6;" vertex="1" parent="1">
          <mxGeometry x="371.25" y="436" width="30" height="10" as="geometry" />
        </mxCell>
        <mxCell id="znn5ze5iM0K1tYEYaF_U-52" value="" style="verticalLabelPosition=bottom;shadow=0;dashed=0;align=center;html=1;verticalAlign=top;shape=mxgraph.electrical.mosfets1.n-channel_mosfet_1;fillColor=none;rotation=-90;" vertex="1" parent="1">
          <mxGeometry x="386" y="361" width="47.5" height="50" as="geometry" />
        </mxCell>
        <mxCell id="znn5ze5iM0K1tYEYaF_U-53" value="Gate" style="text;html=1;align=center;verticalAlign=middle;whiteSpace=wrap;rounded=0;fontSize=6;" vertex="1" parent="1">
          <mxGeometry x="402" y="406" width="20" height="10" as="geometry" />
        </mxCell>
      </root>
    </mxGraphModel>
  </diagram>
</mxfile>
